# Blender 3.2.2
# www.blender.org
mtllib test_explosion.mtl
o Cube
v -1.984341 -0.113723 -1.453967
v -2.918039 -0.468259 -1.403845
v -3.804880 -0.805002 -0.354981
v -1.937484 -0.095931 -0.455224
v 1.762797 0.209006 1.705798
v 2.287334 0.075297 0.864975
v 1.472565 0.282989 0.323665
v 0.798385 0.218453 -0.693455
v -0.596254 -0.151483 -2.078421
v -1.265589 -0.329028 -1.356986
v 0.129050 0.040908 0.027979
v -1.629359 -1.048596 -1.453967
v -2.208076 -2.338005 -1.403846
v 0.132193 -1.182649 1.851280
v 0.945343 -1.764703 1.851279
v 1.160855 -1.463625 0.922352
v 1.268776 -1.729019 1.705798
v 1.793313 -1.862728 0.864975
v -1.221643 -1.355953 1.481019
v 0.404657 -2.520061 1.481019
v -0.752810 -2.262176 -1.356986
v -0.083475 -2.084630 -2.078421
v -0.070528 -1.387618 2.005311
v 0.978544 -1.655036 0.323665
v 0.641829 -1.892239 0.027979
v 1.311164 -1.714694 -0.693455
vn -0.3550 0.9349 -0.0000
vn 0.2470 0.9690 -0.0000
vn -0.2564 0.9666 -0.0000
vn -0.0469 -0.0178 -0.9987
vn 0.5407 0.7554 0.3703
vn 0.8148 -0.2077 0.5413
vn -0.2155 -0.3011 0.9289
vn 0.9337 0.3545 -0.0501
vn -0.6973 -0.1850 -0.6925
vn -0.2470 -0.9690 -0.0000
vn 0.8132 -0.5821 -0.0000
vn 0.2564 -0.9666 -0.0000
vn 0.6973 0.1850 0.6925
vn 0.5245 -0.1337 -0.8408
vn 0.6693 0.1775 -0.7214
vt 0.875000 0.750000
vt 0.625000 1.000000
vt 0.625000 0.000000
vt 0.750000 0.750000
vt 0.625000 0.875000
vt 0.625000 0.625000
vt 0.875000 0.625000
vt 0.625000 0.125000
vt 0.750000 0.750000
vt 0.625000 0.875000
vt 0.625000 0.750000
vt 0.625000 0.625000
vt 0.625000 0.500000
vt 0.875000 0.500000
vt 0.625000 0.250000
vt 0.875000 0.625000
vt 0.625000 0.125000
vt 0.625000 0.625000
vt 0.500000 1.000000
vt 0.500000 0.000000
vt 0.375000 0.875000
vt 0.500000 1.000000
vt 0.500000 0.000000
vt 0.375000 1.000000
vt 0.375000 0.000000
vt 0.125000 0.750000
vt 0.375000 0.875000
vt 0.250000 0.750000
vt 0.375000 0.875000
vt 0.250000 0.750000
vt 0.375000 0.750000
vt 0.625000 0.125000
vt 0.375000 0.125000
vt 0.125000 0.625000
vt 0.375000 0.125000
vt 0.125000 0.625000
vt 0.125000 0.500000
vt 0.375000 0.250000
vt 0.125000 0.625000
vt 0.375000 0.625000
vt 0.375000 0.625000
vt 0.375000 0.500000
s 0
usemtl Material
f 1/1/1 2/4/1 3/6/1 4/7/1
f 5/9/2 6/11/2 7/12/2
f 8/13/3 9/14/3 10/16/3 11/18/3
f 1/2/4 12/19/4 13/21/4 2/5/4
f 14/22/5 15/24/5 16/27/5
f 5/10/6 17/29/6 18/31/6 6/11/6
f 15/25/7 14/23/7 19/32/7 20/33/7
f 12/20/8 1/3/8 4/8/8
f 21/35/9 10/17/9 9/15/9 22/38/9
f 18/31/10 17/30/10 23/39/10 24/40/10
f 16/28/11 15/26/11 20/34/11
f 25/41/12 21/36/12 22/37/12 26/42/12
f 26/42/13 8/13/13 11/18/13 25/41/13
f 24/40/14 7/12/14 6/11/14 18/31/14
f 8/13/15 26/42/15 22/38/15 9/15/15
